<?xml version="1.0" encoding="UTF-8"?>
<svg width="124px" height="60px" viewBox="0 0 124 60" version="1.1" xmlns="http://www.w3.org/2000/svg" xmlns:xlink="http://www.w3.org/1999/xlink">
    <!-- Generator: Sketch 45.2 (43514) - http://www.bohemiancoding.com/sketch -->
    <title>logo-white</title>
    <desc>Created with Sketch.</desc>
    <defs></defs>
    <g id="Page-1" stroke="none" stroke-width="1" fill="none" fill-rule="evenodd">
        <g id="logo-white" fill-rule="nonzero" fill="#FFFFFF">
            <path d="M5.6260975,15.2163805 L10.9999019,15.2163805 L13.9992345,31.4627656 C14.6865815,34.9619872 15.0614981,37.2114866 15.3739287,39.4609861 L15.4989008,39.4609861 C16.3112202,37.5239171 17.1860255,35.3993898 18.7481779,32.0251406 L26.4964539,15.2163805 L31.9952305,15.2163805 L20.6227608,38.2112642 C17.3734837,44.7098182 14.311665,50.0211366 10.1875826,54.0827328 C6.81333335,57.5194682 3.12665361,58.9566484 1.439529,59.331565 L0.127320955,54.832566 C1.439529,54.3951633 3.6265424,53.582844 5.6885836,51.9582055 C7.75062481,50.3960531 9.9376382,47.9590953 11.5622767,44.9597627 C11.8122211,44.4598738 11.8122211,44.1474434 11.6872489,43.5850685 L5.6260975,15.2163805 Z" id="Path"></path>
            <path d="M36.2458335,45.5151946 L31.4167309,45.5151946 L35.2919367,24.0824633 C35.8881222,20.7082141 36.305452,17.7713675 36.6035448,15.2719236 L40.955699,15.2719236 L40.1806578,20.9581585 L40.3595135,20.9581585 C43.0423482,16.7091039 46.6790798,14.5845766 50.4946671,14.5845766 C54.9064398,14.5845766 56.9930891,17.5214231 57.2315633,21.333075 C59.795161,16.9590483 63.4915111,14.6470627 67.7840467,14.5845766 C71.1226855,14.5845766 74.8190356,16.8340761 74.8190356,22.5203109 C74.8190356,23.895005 74.6401801,25.9570463 74.3420873,27.6441708 L71.1226855,45.5151946 L66.2935829,45.5151946 L69.3937476,28.0815736 C69.6322218,26.8943377 69.8110775,25.3946714 69.8110775,24.1449494 C69.8110775,20.9581585 68.678325,18.8961172 65.4589233,18.8961172 C61.8818102,18.8961172 57.5892746,23.2701441 56.3969036,30.0186425 L53.6544503,45.5151946 L48.8849663,45.5151946 L52.104368,27.769143 C52.3428421,26.3944489 52.4620793,25.2696992 52.4620793,24.0824633 C52.4620793,21.5205334 51.8062752,18.8961172 48.1695436,18.8961172 C44.532812,18.8961172 40.0614207,23.895005 38.9286682,30.331073 L36.2458335,45.5151946 Z" id="Path"></path>
            <path d="M85.7541027,45.5151946 L80.5677566,45.5151946 L85.5041583,19.3335199 L80.5677566,19.3335199 L81.5050481,15.271924 L86.3164776,15.2719236 L86.566422,13.6472851 C87.3162552,9.46071659 88.8159215,5.58657858 91.5028237,3.14962079 C93.4398926,1.40001007 96.0643088,0.46271861 98.6887248,0.46271861 C100.813252,0.46271861 102.12546,0.837635193 102.875293,1.27503787 L101.750544,5.39912029 C100.938224,5.0242037 99.8759606,4.83674541 98.6887248,4.83674541 C94.5646423,4.83674541 92.5650873,8.83585562 91.6902819,13.8347433 L91.4403375,15.2719236 L99.1818445,15.271924 L98.1937203,19.3335199 L90.6905044,19.3335199 L85.7541027,45.5151946 Z" id="Path"></path>
            <path d="M118.559304,39.8914458 L119.309136,43.7655839 C117.059637,45.0153059 113.372958,46.1400556 109.311361,46.1400556 C101.313141,46.1400556 97.8139195,40.7037652 97.8139195,34.0177528 C97.8139195,24.8947826 104.562418,14.5845766 114.310249,14.5845766 C120.05897,14.5845766 123.183275,18.0213119 123.183275,22.3953387 C123.183275,30.331073 114.247763,32.3931143 103.062752,32.2056559 C102.812807,33.517864 103.000265,36.3297384 103.687613,37.8918908 C104.874848,40.641279 107.311806,41.9534871 110.436111,41.9534871 C113.997819,41.9534871 116.68472,40.8912234 118.559304,39.8914458 Z M118.184387,22.5203109 L118.184387,22.4578248 C118.184387,20.0208671 116.309804,18.6461728 113.560416,18.6461728 C108.624014,18.6461728 104.937335,23.4576023 103.687613,28.2065457 C111.810805,28.3315179 118.184387,27.2067682 118.184387,22.5203109 Z" id="Combined-Shape"></path>
        </g>
    </g>
</svg>