<svg width="155px" height="89px" viewBox="0 0 155 89" version="1.1" xmlns="http://www.w3.org/2000/svg" xmlns:xlink="http://www.w3.org/1999/xlink">
    <!-- Generator: Sketch 45.2 (43514) - http://www.bohemiancoding.com/sketch -->
    <title>Combined Shape</title>
    <desc>Created with Sketch.</desc>
    <defs>
        <path d="M0,0 L154.569652,0 L154.569652,88.6610076 L0,88.6610076 L0,0 Z M20.6260975,29.2163805 L26.6872489,57.5850685 C26.8122211,58.1474434 26.8122211,58.4598738 26.5622767,58.9597627 C24.9376382,61.9590953 22.7506248,64.3960531 20.6885836,65.9582055 C18.6265424,67.582844 16.439529,68.3951633 15.127321,68.832566 L16.439529,73.331565 C18.1266536,72.9566484 21.8133333,71.5194682 25.1875826,68.0827328 C29.311665,64.0211366 32.3734837,58.7098182 35.6227608,52.2112642 L46.9952305,29.2163805 L41.4964539,29.2163805 L33.7481779,46.0251406 C32.1860255,49.3993898 31.3112202,51.5239171 30.4989008,53.4609861 L30.3739287,53.4609861 C30.0614981,51.2114866 29.6865815,48.9619872 28.9992345,45.4627656 L25.9999019,29.2163805 L20.6260975,29.2163805 Z M51.2458335,59.5151946 L53.9286682,44.331073 C55.0614207,37.895005 59.532812,32.8961172 63.1695436,32.8961172 C66.8062752,32.8961172 67.4620793,35.5205334 67.4620793,38.0824633 C67.4620793,39.2696992 67.3428421,40.3944489 67.104368,41.769143 L63.8849663,59.5151946 L68.6544503,59.5151946 L71.3969036,44.0186425 C72.5892746,37.2701441 76.8818102,32.8961172 80.4589233,32.8961172 C83.678325,32.8961172 84.8110775,34.9581585 84.8110775,38.1449494 C84.8110775,39.3946714 84.6322218,40.8943377 84.3937476,42.0815736 L81.2935829,59.5151946 L86.1226855,59.5151946 L89.3420873,41.6441708 C89.6401801,39.9570463 89.8190356,37.895005 89.8190356,36.5203109 C89.8190356,30.8340761 86.1226855,28.5845766 82.7840467,28.5845766 C78.4915111,28.6470627 74.795161,30.9590483 72.2315633,35.333075 C71.9930891,31.5214231 69.9064398,28.5845766 65.4946671,28.5845766 C61.6790798,28.5845766 58.0423482,30.7091039 55.3595135,34.9581585 L55.1806578,34.9581585 L55.955699,29.2719236 L51.6035448,29.2719236 C51.305452,31.7713675 50.8881222,34.7082141 50.2919367,38.0824633 L46.4167309,59.5151946 L51.2458335,59.5151946 Z M100.754103,59.5151946 L105.690504,33.3335199 L113.19372,33.3335199 L114.181844,29.271924 L106.440338,29.2719236 L106.690282,27.8347433 C107.565087,22.8358556 109.564642,18.8367454 113.688725,18.8367454 C114.875961,18.8367454 115.938224,19.0242037 116.750544,19.3991203 L117.875293,15.2750379 C117.12546,14.8376352 115.813252,14.4627186 113.688725,14.4627186 C111.064309,14.4627186 108.439893,15.4000101 106.502824,17.1496208 C103.815921,19.5865786 102.316255,23.4607166 101.566422,27.6472851 L101.316478,29.2719236 L96.5050481,29.271924 L95.5677566,33.3335199 L100.504158,33.3335199 L95.5677566,59.5151946 L100.754103,59.5151946 Z M133.559304,53.8914458 C131.68472,54.8912234 128.997819,55.9534871 125.436111,55.9534871 C122.311806,55.9534871 119.874848,54.641279 118.687613,51.8918908 C118.000265,50.3297384 117.812807,47.517864 118.062752,46.2056559 C129.247763,46.3931143 138.183275,44.331073 138.183275,36.3953387 C138.183275,32.0213119 135.05897,28.5845766 129.310249,28.5845766 C119.562418,28.5845766 112.813919,38.8947826 112.813919,48.0177528 C112.813919,54.7037652 116.313141,60.1400556 124.311361,60.1400556 C128.372958,60.1400556 132.059637,59.0153059 134.309136,57.7655839 L133.559304,53.8914458 Z M133.184387,36.5203109 C133.184387,41.2067682 126.810805,42.3315179 118.687613,42.2065457 C119.937335,37.4576023 123.624014,32.6461728 128.560416,32.6461728 C131.309804,32.6461728 133.184387,34.0208671 133.184387,36.4578248 L133.184387,36.5203109 Z" id="path-1"></path>
    </defs>
    <g id="Page-1" stroke="none" stroke-width="1" fill="none" fill-rule="evenodd">
        <g id="Combined-Shape">
            <use fill="#D8D8D8" fill-rule="evenodd" xlink:href="#path-1"></use>
        </g>
    </g>
</svg>